<svg id="Ebene_1" data-name="Ebene 1" xmlns="http://www.w3.org/2000/svg" viewBox="0 0 235 45.29"><title>logo</title><path d="M76.66,8.35H75.35L72,17.28c-0.37,1-.73,2-1,3h0c-0.27-1-.65-2.08-0.94-2.86l-3.21-9H65.39l4.89,13.22h1.35l5-13.22" style="fill:#102b61"/><path d="M84.14,16.62c0,2.86-1.49,4.09-3.09,4.09-2,0-3.15-1.49-3.15-4.07s1.53-4,3.13-4c2.06,0,3.11,1.49,3.11,3.93m1.27-.06c0-3.62-2-4.88-4.25-4.88-2.92,0-4.56,2.33-4.56,5.05,0,3.41,1.64,5,4.23,5C83.69,21.73,85.42,19.4,85.42,16.56Z" style="fill:#102b61;fill-rule:evenodd"/><rect x="88.2" y="7.28" width="1.23" height="14.29" style="fill:#102b61"/><polyline points="100.08 21.57 95.8 16.26 99.75 11.84 98.26 11.84 94.42 16.26 94.42 7.28 93.19 7.28 93.19 21.57 94.42 21.57 94.42 16.4 98.44 21.57 100.08 21.57" style="fill:#102b61"/><path d="M107.6,18.71c0-3.37-4.94-1.88-4.94-4.39,0-1,.78-1.66,2.29-1.66A7.33,7.33,0,0,1,107,13l0.06-1.1a9.54,9.54,0,0,0-1.94-.22c-2.41,0-3.72,1.2-3.72,2.78,0,3.51,4.91,1.94,4.91,4.43,0,1.12-1.06,1.78-2.57,1.78a8.43,8.43,0,0,1-2.19-.31l0,1.17a9.48,9.48,0,0,0,2.08.2c2.51,0,4-1.35,4-3" style="fill:#102b61"/><path d="M123.81,11.84h-1.33l-1.9,6.28c-0.29,1-.49,1.57-0.66,2.27h0c-0.16-.57-0.29-1.06-0.71-2.31l-2-6.25h-1.49l-2,6.27c-0.24.74-.47,1.55-0.65,2.27h0c-0.16-.59-0.41-1.41-0.65-2.27l-1.8-6.27h-1.41l3,9.73h1.49l1.92-6.07c0.25-.82.51-1.63,0.72-2.45h0c0.16,0.61.33,1.2,0.53,1.78l2.31,6.74h1.47l3.19-9.73" style="fill:#102b61"/><path d="M131,17.09c0,1.78-1.21,3.62-3.05,3.62a1.51,1.51,0,0,1-1.68-1.55c0-1,.84-2.21,4.74-2.21v0.14m1.27,4.48c0-.88,0-2,0-3V14.81c0-1.8-.72-3.13-3.31-3.13a7.84,7.84,0,0,0-3.35.74l0.14,1.12a5.76,5.76,0,0,1,3-.86c1.74,0,2.31.88,2.31,2.47V16c-3.92,0-6,1.43-6,3.41,0,1.55,1.14,2.31,2.64,2.31a3.61,3.61,0,0,0,3.45-2.31l0,0a13.66,13.66,0,0,0-.12,2.13h1.25Z" style="fill:#102b61;fill-rule:evenodd"/><path d="M142.81,23.33c0,1.39-1.33,2.35-3.58,2.35-1.7,0-3-.69-3-2a2.46,2.46,0,0,1,1.51-2.08h2.74c1.57,0,2.35.65,2.35,1.76m-0.65-8a2.48,2.48,0,0,1-2.8,2.59c-1.76,0-2.78-.9-2.78-2.59a2.59,2.59,0,0,1,2.86-2.64A2.45,2.45,0,0,1,142.16,15.29Zm1.9,7.89c0-1.66-1.16-2.7-3.27-2.7h-2c-1.21,0-1.8-.27-1.8-0.88a1,1,0,0,1,.77-0.94,6.27,6.27,0,0,0,1.43.18c2.82,0,4.23-1.63,4.23-3.68a2.85,2.85,0,0,0-1-2.33h1.84v-1h-3.31a6.91,6.91,0,0,0-1.41-.16c-2.6,0-4.19,1.71-4.19,3.74a3.11,3.11,0,0,0,1.45,2.86,1.67,1.67,0,0,0-1.06,1.53,1.56,1.56,0,0,0,1,1.41A3,3,0,0,0,135,23.86c0,1.84,1.59,2.86,4,2.86C141.92,26.72,144.06,25.21,144.06,23.18Z" style="fill:#102b61;fill-rule:evenodd"/><path d="M152.52,15.29h-5.25A2.82,2.82,0,0,1,150,12.62a2.4,2.4,0,0,1,2.51,2.66m1.31,0.31c0-2.09-1.1-3.92-3.74-3.92s-4.21,2.16-4.21,5.05c0,3.43,1.55,5,4.44,5a8.49,8.49,0,0,0,3.15-.57l-0.12-1.1a6.82,6.82,0,0,1-2.82.63c-2.27,0-3.47-1.29-3.35-4.45h6.6A4.37,4.37,0,0,0,153.83,15.6Z" style="fill:#102b61;fill-rule:evenodd"/><path d="M164.29,21.57V14.8c0-1.74-.69-3.13-2.94-3.13a3.6,3.6,0,0,0-3.52,2.45l0,0a13.91,13.91,0,0,0,.18-2.25h-1.25v9.73h1.24V16.91c0-2.45,1.29-4.25,3.13-4.25,1.53,0,2,1,2,2.59v6.32h1.23" style="fill:#102b61"/><path d="M175.22,17.48c0-4.13-5.56-3.25-5.56-5.62,0-.94.74-1.61,2.21-1.61a8.66,8.66,0,0,1,2.37.35l0.14-2.23A14.62,14.62,0,0,0,172,8.14c-3.17,0-5,1.63-5,4,0,4.35,5.54,3.19,5.54,5.72,0,1.21-1,1.74-2.29,1.74a9.14,9.14,0,0,1-2.76-.47l-0.16,2.37a10.9,10.9,0,0,0,2.7.31c3.25,0,5.23-1.82,5.23-4.31" style="fill:#102b61"/><path d="M182.68,21.51v-2a4.78,4.78,0,0,1-1.21.16c-0.86,0-1.16-.35-1.16-1.61V13.78h2.37V11.84h-2.37V8.18l-2.51.66v3h-1.66v1.94h1.69v4.93c0,2.27.66,3.05,2.82,3.05a8.6,8.6,0,0,0,2-.25" style="fill:#102b61"/><path d="M184.72,21.57h2.51V11.84h-2.51v9.73Zm2.82-12.51A1.56,1.56,0,1,0,186,10.59,1.53,1.53,0,0,0,187.54,9.06Z" style="fill:#102b61;fill-rule:evenodd"/><path d="M195.9,7.28a7.19,7.19,0,0,0-1.59-.16c-2.66,0-3.88,1.29-3.88,3.94v0.78h-1.7v1.94h1.7v7.79h2.49V13.78h2.27V11.84h-2.27V11c0-1.29.49-1.86,1.59-1.86a3.79,3.79,0,0,1,1.21.18l0.18-2.06" style="fill:#102b61"/><path d="M201.65,21.51v-2a4.79,4.79,0,0,1-1.21.16c-0.86,0-1.16-.35-1.16-1.61V13.78h2.37V11.84h-2.37V8.18l-2.51.66v3h-1.66v1.94h1.68v4.93c0,2.27.66,3.05,2.82,3.05a8.6,8.6,0,0,0,2-.25" style="fill:#102b61"/><path d="M212.15,21.57V11.84h-2.51v4.7c0,1.7-1,3.15-2.25,3.15-0.94,0-1.21-.61-1.21-1.63V11.84h-2.49v6.83c0,1.7.71,3.11,2.9,3.11a3.53,3.53,0,0,0,3.31-2l0,0a10.62,10.62,0,0,0-.12,1.72h2.35" style="fill:#102b61"/><path d="M223.31,21.57V14.74c0-1.7-.7-3.11-2.9-3.11a3.55,3.55,0,0,0-3.31,2l0,0a10.87,10.87,0,0,0,.14-1.72h-2.37v9.73h2.5v-4.7c0-1.7,1-3.15,2.27-3.15,0.92,0,1.19.61,1.19,1.63v6.23h2.49" style="fill:#102b61"/><path d="M232.42,23c0,0.92-.86,1.61-2.51,1.61-1.25,0-2.08-.53-2.08-1.43a1.6,1.6,0,0,1,.88-1.39h2.15c1.08,0,1.55.51,1.55,1.21m-0.63-7.77a1.91,1.91,0,0,1-3.8,0,1.73,1.73,0,0,1,1.92-1.76A1.68,1.68,0,0,1,231.79,15.23Zm3.09,7.44c0-1.88-1.22-2.86-3.33-2.86H230c-1.14,0-1.51-.16-1.51-0.61a0.71,0.71,0,0,1,.47-0.63,4.78,4.78,0,0,0,1,.08c2.7,0,4.21-1.41,4.21-3.57a1.77,1.77,0,0,0-.49-1.29H235v-2h-3.29a7.69,7.69,0,0,0-1.7-.22c-2.86,0-4.41,1.72-4.41,3.78a2.91,2.91,0,0,0,1.45,2.72,1.85,1.85,0,0,0-1.16,1.68,1.61,1.61,0,0,0,1,1.49,2.76,2.76,0,0,0-1.49,2.35c0,1.9,1.59,2.88,4.17,2.88C232.79,26.53,234.88,24.78,234.88,22.67Z" style="fill:#102b61;fill-rule:evenodd"/><path d="M0,29.39a3.44,3.44,0,1,1,3.44,3.44A3.44,3.44,0,0,1,0,29.39" style="fill:#102b61"/><path d="M1.76,2A1.85,1.85,0,1,1,3.61,3.83,1.85,1.85,0,0,1,1.76,2" style="fill:#102b61"/><path d="M1.76,15.74A1.85,1.85,0,1,1,3.61,17.6a1.86,1.86,0,0,1-1.85-1.85" style="fill:#102b61"/><path d="M16,1.85a1.85,1.85,0,1,1,1.85,1.85A1.85,1.85,0,0,1,16,1.85" style="fill:#102b61"/><path d="M29.7,2a1.85,1.85,0,1,1,1.85,1.85A1.85,1.85,0,0,1,29.7,2" style="fill:#102b61"/><path d="M29.7,15.74a1.85,1.85,0,1,1,1.85,1.85,1.86,1.86,0,0,1-1.85-1.85" style="fill:#102b61"/><path d="M29.7,43.44a1.85,1.85,0,1,1,1.85,1.85,1.85,1.85,0,0,1-1.85-1.85" style="fill:#102b61"/><path d="M43.79,2a1.85,1.85,0,1,1,1.85,1.85A1.85,1.85,0,0,1,43.79,2" style="fill:#102b61"/><path d="M43.79,29.59a1.85,1.85,0,1,1,1.85,1.85,1.86,1.86,0,0,1-1.85-1.85" style="fill:#102b61"/><path d="M43.79,43.44a1.85,1.85,0,1,1,1.85,1.85,1.85,1.85,0,0,1-1.85-1.85" style="fill:#102b61"/><path d="M13.35,15.86a4.5,4.5,0,1,1,4.5,4.5,4.5,4.5,0,0,1-4.5-4.5" style="fill:#102b61"/><path d="M26.07,29.14a5.56,5.56,0,1,1,5.56,5.56,5.56,5.56,0,0,1-5.56-5.56" style="fill:#102b61"/><path d="M39,15.42A6.62,6.62,0,1,1,45.67,22,6.62,6.62,0,0,1,39,15.42" style="fill:#102b61"/><path d="M16,43.32a1.85,1.85,0,1,1,1.85,1.85A1.85,1.85,0,0,1,16,43.32" style="fill:#102b61"/><path d="M16,29.47a1.85,1.85,0,1,1,1.85,1.85A1.85,1.85,0,0,1,16,29.47" style="fill:#102b61"/><path d="M1.76,43.44a1.85,1.85,0,1,1,1.85,1.85,1.85,1.85,0,0,1-1.85-1.85" style="fill:#102b61"/></svg>